<svg width="44" height="44" viewBox="0 0 44 44" fill="none" xmlns="http://www.w3.org/2000/svg">
<circle cx="21.5" cy="21.5" r="21.5" fill="white"/>
<g clip-path="url(#clip0_1369_2028)">
<path d="M15.7513 25.9286C15.7513 25.4948 15.5642 25.1244 15.19 24.8175C14.8158 24.5106 14.3643 24.3571 13.8354 24.3571C13.3065 24.3571 12.855 24.5106 12.4808 24.8175C12.1066 25.1244 11.9195 25.4948 11.9195 25.9286C11.9195 26.3624 12.1066 26.7327 12.4808 27.0396C12.855 27.3465 13.3065 27.5 13.8354 27.5C14.3643 27.5 14.8158 27.3465 15.19 27.0396C15.5642 26.7327 15.7513 26.3624 15.7513 25.9286ZM31.0782 25.9286C31.0782 25.4948 30.8911 25.1244 30.5169 24.8175C30.1427 24.5106 29.6912 24.3571 29.1623 24.3571C28.6335 24.3571 28.182 24.5106 27.8078 24.8175C27.4336 25.1244 27.2465 25.4948 27.2465 25.9286C27.2465 26.3624 27.4336 26.7327 27.8078 27.0396C28.182 27.3465 28.6335 27.5 29.1623 27.5C29.6912 27.5 30.1427 27.3465 30.5169 27.0396C30.8911 26.7327 31.0782 26.3624 31.0782 25.9286ZM30.3897 21.067L29.312 16.3527C29.2621 16.1644 29.1499 16.011 28.9753 15.8923C28.8006 15.7736 28.5986 15.7143 28.3691 15.7143H14.6287C14.3992 15.7143 14.1971 15.7736 14.0225 15.8923C13.8479 16.011 13.7356 16.1644 13.6857 16.3527L12.608 21.067C12.5582 21.3125 12.628 21.5294 12.8176 21.7176C13.0072 21.9059 13.2517 22 13.551 22H29.4467C29.7461 22 29.9906 21.9059 30.1802 21.7176C30.3697 21.5294 30.4396 21.3125 30.3897 21.067ZM27.007 13.5536C27.007 13.3899 26.9371 13.2507 26.7974 13.1362C26.6577 13.0216 26.4881 12.9643 26.2885 12.9643H16.7092C16.5096 12.9643 16.34 13.0216 16.2003 13.1362C16.0606 13.2507 15.9908 13.3899 15.9908 13.5536C15.9908 13.7173 16.0606 13.8564 16.2003 13.971C16.34 14.0856 16.5096 14.1429 16.7092 14.1429H26.2885C26.4881 14.1429 26.6577 14.0856 26.7974 13.971C26.9371 13.8564 27.007 13.7173 27.007 13.5536ZM32.9941 22.4542V29.8571H31.0782V31.4286C31.0782 31.8624 30.8911 32.2327 30.5169 32.5396C30.1427 32.8465 29.6912 33 29.1623 33C28.6335 33 28.182 32.8465 27.8078 32.5396C27.4336 32.2327 27.2465 31.8624 27.2465 31.4286V29.8571H15.7513V31.4286C15.7513 31.8624 15.5642 32.2327 15.19 32.5396C14.8158 32.8465 14.3643 33 13.8354 33C13.3065 33 12.855 32.8465 12.4808 32.5396C12.1066 32.2327 11.9195 31.8624 11.9195 31.4286V29.8571H10.0037V22.4542C10.0037 21.5376 10.1284 20.625 10.3779 19.7165L11.9195 14.1429C12.0093 13.5045 12.4958 12.9438 13.3789 12.4609C14.262 11.9781 15.4095 11.6138 16.8215 11.3683C18.2334 11.1228 19.7926 11 21.4989 11C23.2052 11 24.7643 11.1228 26.1763 11.3683C27.5882 11.6138 28.7358 11.9781 29.6189 12.4609C30.502 12.9438 30.9884 13.5045 31.0782 14.1429L32.6498 19.7165C32.8793 20.5513 32.9941 21.4639 32.9941 22.4542Z" fill="#1D2E5B"/>
</g>
<defs>
<clipPath id="clip0_1369_2028">
<rect width="23" height="22" fill="white" transform="translate(10 11)"/>
</clipPath>
</defs>
</svg>
