<svg width="17" height="16" viewBox="0 0 17 16" fill="none" xmlns="http://www.w3.org/2000/svg">
<g clip-path="url(#clip0_13382_91)">
<path d="M4.45559 10.8571C4.45559 10.5417 4.31952 10.2723 4.04738 10.0491C3.77524 9.82589 3.44686 9.71429 3.06223 9.71429C2.67761 9.71429 2.34922 9.82589 2.07708 10.0491C1.80494 10.2723 1.66887 10.5417 1.66887 10.8571C1.66887 11.1726 1.80494 11.442 2.07708 11.6652C2.34922 11.8884 2.67761 12 3.06223 12C3.44686 12 3.77524 11.8884 4.04738 11.6652C4.31952 11.442 4.45559 11.1726 4.45559 10.8571ZM15.6025 10.8571C15.6025 10.5417 15.4664 10.2723 15.1942 10.0491C14.9221 9.82589 14.5937 9.71429 14.2091 9.71429C13.8245 9.71429 13.4961 9.82589 13.224 10.0491C12.9518 10.2723 12.8157 10.5417 12.8157 10.8571C12.8157 11.1726 12.9518 11.442 13.224 11.6652C13.4961 11.8884 13.8245 12 14.2091 12C14.5937 12 14.9221 11.8884 15.1942 11.6652C15.4664 11.442 15.6025 11.1726 15.6025 10.8571ZM15.1017 7.32143L14.318 3.89286C14.2817 3.75595 14.2 3.64435 14.073 3.55804C13.946 3.47173 13.7991 3.42857 13.6322 3.42857H3.63917C3.47226 3.42857 3.3253 3.47173 3.1983 3.55804C3.0713 3.64435 2.98966 3.75595 2.95337 3.89286L2.16961 7.32143C2.13332 7.5 2.18412 7.65774 2.32201 7.79464C2.45989 7.93155 2.63769 8 2.8554 8H14.4159C14.6336 8 14.8114 7.93155 14.9493 7.79464C15.0872 7.65774 15.138 7.5 15.1017 7.32143ZM12.6416 1.85714C12.6416 1.7381 12.5908 1.6369 12.4892 1.55357C12.3876 1.47024 12.2642 1.42857 12.1191 1.42857H5.15227C5.00713 1.42857 4.88376 1.47024 4.78216 1.55357C4.68056 1.6369 4.62976 1.7381 4.62976 1.85714C4.62976 1.97619 4.68056 2.07738 4.78216 2.16071C4.88376 2.24405 5.00713 2.28571 5.15227 2.28571H12.1191C12.2642 2.28571 12.3876 2.24405 12.4892 2.16071C12.5908 2.07738 12.6416 1.97619 12.6416 1.85714ZM16.9958 8.33036V13.7143H15.6025V14.8571C15.6025 15.1726 15.4664 15.442 15.1942 15.6652C14.9221 15.8884 14.5937 16 14.2091 16C13.8245 16 13.4961 15.8884 13.224 15.6652C12.9518 15.442 12.8157 15.1726 12.8157 14.8571V13.7143H4.45559V14.8571C4.45559 15.1726 4.31952 15.442 4.04738 15.6652C3.77524 15.8884 3.44686 16 3.06223 16C2.67761 16 2.34922 15.8884 2.07708 15.6652C1.80494 15.442 1.66887 15.1726 1.66887 14.8571V13.7143H0.275513V8.33036C0.275513 7.66369 0.366226 7 0.547653 6.33929L1.66887 2.28571C1.73419 1.82143 2.08797 1.41369 2.73022 1.0625C3.37247 0.71131 4.20703 0.446429 5.23391 0.267857C6.26079 0.0892857 7.39471 0 8.63567 0C9.87663 0 11.0105 0.0892857 12.0374 0.267857C13.0643 0.446429 13.8989 0.71131 14.5411 1.0625C15.1834 1.41369 15.5371 1.82143 15.6025 2.28571L16.7454 6.33929C16.9124 6.94643 16.9958 7.61012 16.9958 8.33036Z" fill="#1D2E5B"/>
</g>
<defs>
<clipPath id="clip0_13382_91">
<rect width="16.7273" height="16" fill="white" transform="translate(0.272705)"/>
</clipPath>
</defs>
</svg>
