<svg width="17" height="16" viewBox="0 0 17 16" fill="none" xmlns="http://www.w3.org/2000/svg">
<path d="M12.9488 14C12.3543 14 11.7732 13.8314 11.2789 13.5155C10.7846 13.1996 10.3994 12.7506 10.1719 12.2252C9.94442 11.6999 9.8849 11.1218 10.0009 10.5641C10.1168 10.0064 10.4031 9.49414 10.8235 9.09207C11.2438 8.68999 11.7794 8.41618 12.3624 8.30524C12.9455 8.19431 13.5498 8.25125 14.099 8.46885C14.6482 8.68645 15.1177 9.05495 15.4479 9.52774C15.7782 10.0005 15.9545 10.5564 15.9545 11.125C15.9536 11.8872 15.6367 12.618 15.0732 13.157C14.5097 13.696 13.7457 13.9992 12.9488 14V14ZM12.9488 9.25C12.5611 9.25 12.1821 9.35997 11.8598 9.566C11.5374 9.77202 11.2861 10.0649 11.1378 10.4075C10.9894 10.7501 10.9506 11.1271 11.0262 11.4908C11.1019 11.8545 11.2886 12.1886 11.5627 12.4508C11.8369 12.7131 12.1861 12.8916 12.5664 12.964C12.9466 13.0363 13.3408 12.9992 13.6989 12.8573C14.0571 12.7154 14.3633 12.475 14.5787 12.1667C14.7941 11.8584 14.909 11.4958 14.909 11.125C14.9084 10.6279 14.7017 10.1513 14.3342 9.79982C13.9667 9.44831 13.4685 9.25058 12.9488 9.25V9.25Z" fill="#1D2E5B"/>
<path d="M4.3238 14C3.72933 14 3.14821 13.8314 2.65393 13.5155C2.15965 13.1996 1.7744 12.7506 1.54691 12.2252C1.31942 11.6999 1.2599 11.1218 1.37587 10.5641C1.49184 10.0064 1.77811 9.49414 2.19846 9.09207C2.61881 8.68999 3.15437 8.41618 3.73742 8.30524C4.32046 8.19431 4.92481 8.25125 5.47402 8.46885C6.02324 8.68645 6.49266 9.05495 6.82293 9.52774C7.1532 10.0005 7.32948 10.5564 7.32948 11.125C7.32862 11.8872 7.01167 12.618 6.44818 13.157C5.88469 13.696 5.12069 13.9992 4.3238 14V14ZM4.3238 9.25C3.9361 9.25 3.55711 9.35997 3.23475 9.566C2.9124 9.77202 2.66115 10.0649 2.51278 10.4075C2.36442 10.7501 2.3256 11.1271 2.40124 11.4908C2.47687 11.8545 2.66357 12.1886 2.93771 12.4508C3.21185 12.7131 3.56113 12.8916 3.94138 12.964C4.32162 13.0363 4.71576 12.9992 5.07394 12.8573C5.43213 12.7154 5.73828 12.475 5.95367 12.1667C6.16906 11.8584 6.28403 11.4958 6.28403 11.125C6.28342 10.6279 6.0767 10.1513 5.70922 9.79982C5.34174 9.44831 4.8435 9.25058 4.3238 9.25V9.25Z" fill="#1D2E5B"/>
<path d="M10.7273 4.00003C10.865 4.00049 11.0014 3.97483 11.1287 3.92454C11.2559 3.87425 11.3715 3.80033 11.4687 3.70705C11.5659 3.61377 11.6429 3.50298 11.695 3.38109C11.7472 3.25919 11.7736 3.12862 11.7727 2.99691C11.7742 2.86585 11.7484 2.73583 11.6968 2.61443C11.6452 2.49302 11.5687 2.38269 11.472 2.28987C11.3753 2.19705 11.2602 2.12361 11.1334 2.07384C11.0067 2.02408 10.8708 1.99898 10.7338 2.00003C10.5965 1.99962 10.4605 2.02508 10.3335 2.07496C10.2065 2.12483 10.091 2.19815 9.99358 2.29071C9.8962 2.38328 9.81883 2.49329 9.76589 2.61446C9.71296 2.73563 9.68549 2.86558 9.68506 2.99691C9.68463 3.12823 9.71125 3.25834 9.76339 3.37983C9.81554 3.50131 9.89218 3.61178 9.98896 3.70493C10.0857 3.79808 10.2007 3.87208 10.3274 3.92271C10.4541 3.97335 10.59 3.99962 10.7273 4.00003V4.00003Z" fill="#1D2E5B"/>
<path d="M12.2808 6.00006H10.8511C10.8276 6.00007 10.8046 5.99404 10.7844 5.9826C10.7643 5.97116 10.7477 5.95474 10.7364 5.93506L9.69946 4.11725C9.6264 3.98216 9.52111 3.86542 9.39211 3.77649C9.26311 3.68756 9.11404 3.62893 8.95695 3.60534C8.79986 3.58176 8.63918 3.59389 8.4879 3.64075C8.33663 3.68761 8.19901 3.76788 8.08619 3.87506L5.80384 6.07506C5.61209 6.26226 5.50325 6.51301 5.5 6.77506C5.5 7.31881 5.91165 7.51256 6.1044 7.62194C7.03551 8.13506 7.69121 8.51038 8.05091 8.71881C8.07003 8.72995 8.08584 8.7456 8.09683 8.76426C8.10781 8.78292 8.1136 8.80396 8.11364 8.82538V10.9854C8.11364 11.2544 8.32991 11.4854 8.61121 11.4988C8.68183 11.5021 8.75241 11.4916 8.81867 11.468C8.88494 11.4444 8.94551 11.4082 8.99673 11.3616C9.04795 11.315 9.08874 11.2589 9.11665 11.1967C9.14456 11.1346 9.159 11.0677 9.15909 11.0001V8.31256C9.15914 8.23319 9.13943 8.15494 9.10159 8.0843C9.06376 8.01366 9.00888 7.95265 8.94151 7.90631L7.7327 7.07475C7.71753 7.06437 7.70485 7.05099 7.69553 7.03553C7.68621 7.02007 7.68046 7.00288 7.67867 6.98512C7.67687 6.96736 7.67907 6.94943 7.68513 6.93255C7.69118 6.91567 7.70094 6.90022 7.71375 6.88725L9.08591 5.48756C9.09998 5.47316 9.11741 5.46215 9.13677 5.45542C9.15614 5.44869 9.1769 5.44644 9.19735 5.44884C9.2178 5.45125 9.23737 5.45825 9.25445 5.46927C9.27154 5.48029 9.28565 5.49502 9.29565 5.51225L10.0085 6.74288C10.0538 6.82089 10.1201 6.88588 10.2006 6.9311C10.281 6.97633 10.3726 7.00014 10.4659 7.00006H12.2955C12.3663 7.00014 12.4364 6.98646 12.5015 6.95984C12.5666 6.93322 12.6254 6.89422 12.6743 6.84521C12.7231 6.79621 12.7611 6.73821 12.7859 6.67474C12.8106 6.61127 12.8216 6.54366 12.8182 6.476C12.8045 6.20694 12.562 6.00006 12.2808 6.00006Z" fill="#1D2E5B"/>
</svg>
