<svg width="17" height="16" viewBox="0 0 17 16" fill="none" xmlns="http://www.w3.org/2000/svg">
<g clip-path="url(#clip0_13382_94)">
<path d="M13.7525 0.858477C13.1673 0.989698 12.5795 1.12153 12.3608 1.48279L10.6684 4.66355L1.58121 6.70147L1.21303 7.71778L8.16679 8.33803L6.98697 11.0916L4.34981 11.683L3.6877 12.7653L5.59021 12.9601L5.80716 13.8452C5.90435 14.159 6.2455 14.3684 6.53669 14.3031L7.41574 14.106L8.43476 15.745L9.09686 14.6627L8.44603 12.0075L10.3554 9.71178L13.9986 15.7432L14.7332 14.9569L12.4912 5.81004L14.5501 2.85931C14.7715 2.49744 14.6271 1.9083 14.482 1.3164C14.4101 1.02321 14.0437 0.793175 13.7525 0.858477Z" fill="#1D2E5B"/>
</g>
<defs>
<clipPath id="clip0_13382_94">
<rect width="16.7273" height="16" fill="white" transform="translate(0.272705)"/>
</clipPath>
</defs>
</svg>
